<svg version="1.1" xmlns="http://www.w3.org/2000/svg" xmlns:xlink="http://www.w3.org/1999/xlink" width="589.5115" height="230.29718" viewBox="0,0,589.5115,230.29718"><defs><linearGradient x1="-59.63311" y1="213.06081" x2="525.8844" y2="213.06081" gradientUnits="userSpaceOnUse" id="color-1"><stop offset="0" stop-color="#674c3d"/><stop offset="1" stop-color="#ffd796"/></linearGradient><linearGradient x1="-60.12861" y1="224.57733" x2="525.3889" y2="224.57733" gradientUnits="userSpaceOnUse" id="color-2"><stop offset="0" stop-color="#2f6ca2"/><stop offset="1" stop-color="#1f476a"/></linearGradient><linearGradient x1="-61.63011" y1="242.59535" x2="523.8874" y2="242.59535" gradientUnits="userSpaceOnUse" id="color-3"><stop offset="0" stop-color="#674c3d"/><stop offset="1" stop-color="#ffd796"/></linearGradient></defs><g transform="translate(63.6271,-119.93925)"><g data-paper-data="{&quot;isPaintingLayer&quot;:true}" fill-rule="nonzero" stroke="#000000" stroke-width="0" stroke-linecap="butt" stroke-linejoin="miter" stroke-miterlimit="10" stroke-dasharray="" stroke-dashoffset="0" style="mix-blend-mode: normal"><path d="M-59.63311,306.18238v-130.81363c0,0 32.66664,-55.42951 78.61115,-55.42951c32.89816,0 76.56679,55.42951 101.65235,55.42951c30.6362,0 43.69997,-53.21233 98.94161,-53.21233c59.18876,0 88.19204,48.77797 143.66865,48.77797c17.96463,0 33.51255,-38.80066 97.58626,-47.66937c46.31385,-6.4105 65.0575,52.10374 65.0575,52.10374v130.81363z" fill="url(#color-1)"/><path d="M-60.12861,317.69889v-130.81362c0,0 32.66664,-55.42951 78.61115,-55.42951c32.89816,0 76.56679,55.42951 101.65235,55.42951c30.6362,0 43.69997,-53.21233 98.94161,-53.21233c59.18875,0 88.19204,48.77797 143.66865,48.77797c17.96463,0 33.51255,-38.80066 97.58626,-47.66937c46.31386,-6.4105 65.0575,52.10374 65.0575,52.10374v130.81362z" fill="url(#color-2)"/><path d="M-61.63011,335.71691v-130.81362c0,0 32.66664,-55.42951 78.61115,-55.42951c32.89816,0 76.56679,55.42951 101.65235,55.42951c30.6362,0 43.69997,-53.21233 98.94161,-53.21233c59.18875,0 88.19204,48.77797 143.66865,48.77797c17.96463,0 33.51255,-38.80066 97.58626,-47.66937c46.31385,-6.4105 65.0575,52.10374 65.0575,52.10374v130.81362z" fill="url(#color-3)"/><path d="M-63.6271,350.23643v-130.81363c0,0 32.66663,-55.4295 78.61115,-55.4295c32.89816,0 76.56679,55.4295 101.65235,55.4295c30.6362,0 43.69997,-53.21232 98.94162,-53.21232c59.18875,0 88.19204,48.77796 143.66865,48.77796c17.96464,0 33.51255,-38.80065 97.58625,-47.66937c46.31386,-6.4105 65.0575,52.10373 65.0575,52.10373v130.81363z" fill="#183752"/></g></g></svg>